<svg xmlns="http://www.w3.org/2000/svg" width="64" height="64" viewBox="0 0 64 64" id="arrows_anticlockwise"><path d="M32 0C14.355 0 0 14.355 0 32c0 6.712 2.056 13.137 5.945 18.58L10.35 55H2v2h11l1-1V45h-2v8.828L7.524 49.35C3.91 44.264 2 38.267 2 32 2 15.458 15.458 2 32 2s30 13.458 30 30-13.458 30-30 30v2c17.645 0 32-14.355 32-32S49.645 0 32 0z"></path></svg>
<svg xmlns="http://www.w3.org/2000/svg" width="64" height="64" viewBox="0 0 64 64" id="arrows_down"><path d="M48.293 23.293L32 39.586 15.707 23.293l-1.414 1.56 17 17.147h1.414l17-17.146z"></path></svg>
<svg xmlns="http://www.w3.org/2000/svg" width="64" height="64" viewBox="0 0 64 64" id="arrows_expand"><path d="M2 3.414l19.293 19.293 1.414-1.414L3.414 2H12V0H1L0 1v11h2zM12 64v-2H3.414l19.293-19.293-1.414-1.414L2 60.586V52H0v11l1 1zm50-3.414L42.707 41.293l-1.414 1.414L60.586 62H52v2h11l1-1V52h-2zM52 0v2h8.586L41.293 21.293l1.414 1.414L62 3.414V12h2V1l-1-1z"></path></svg>
<svg xmlns="http://www.w3.org/2000/svg" width="64" height="64" viewBox="0 0 64 64" id="arrows_hamburger_2"><path d="M12 20h40v2H12zm0 12h40v2H12zm0 12h40v2H12z"></path></svg>
<svg xmlns="http://www.w3.org/2000/svg" width="64" height="64" viewBox="0 0 64 64" id="arrows_left"><path d="M36.146 14.293L19 31.293v1.414l17.146 17 1.488-1.414L21.377 32l16.238-16.293z"></path></svg>
<svg xmlns="http://www.w3.org/2000/svg" width="64" height="64" viewBox="0 0 64 64" id="arrows_remove"><path d="M44.237 16.35L31.99 28.69 19.65 16.443l-1.407 1.42 12.34 12.246-12.248 12.34 1.42 1.407 12.247-12.34 12.34 12.248 1.407-1.42L33.41 30.1l12.247-12.34z"></path></svg>
<svg xmlns="http://www.w3.org/2000/svg" width="64" height="64" viewBox="0 0 64 64" id="arrows_right"><path d="M45 31.293l-17.146-17-1.488 1.414L42.623 32l-16.31 16.293 1.55 1.414 17.137-17z"></path></svg>
<svg xmlns="http://www.w3.org/2000/svg" width="64" height="64" viewBox="0 0 64 64" id="basic_download"><path d="M31 26v29.586l-6.293-6.293-1.414 1.56 8 8.147h1.414l8-8.146-1.414-1.488L33 55.586V26zM24 41H2V7h60v34H40v2h24V5H0v38h24z"></path></svg>
<svg xmlns="http://www.w3.org/2000/svg" width="64" height="64" viewBox="0 0 64 64" id="basic_elaboration_cloud_remove"><path d="M55.978 33.05C55.458 21.91 45.828 13 34.066 13c-10.404 0-19.648 6.823-21.872 16h-.862C5.084 29 0 33.935 0 40c0 6.168 4.832 11 11 11h44c5.047 0 9-3.953 9-9 0-4.716-3.452-8.477-8.022-8.95zM55 49H11c-5.047 0-9-3.953-9-9 0-4.962 4.187-9 9.333-9h2.492l.157-.81C15.664 21.53 24.298 15 34.066 15 45.058 15 54 23.523 54 34v1h1c3.925 0 7 3.075 7 7s-3.075 7-7 7zM38.293 26.293L32 32.586l-6.293-6.293-1.414 1.414L30.586 34l-6.293 6.293 1.414 1.414L32 35.414l6.293 6.293 1.414-1.414L33.414 34l6.293-6.293z"></path></svg>
<svg xmlns="http://www.w3.org/2000/svg" width="64" height="64" viewBox="0 0 64 64" id="basic_eye"><path d="M32 48c20.273 0 31.345-14.78 31.807-15.41l.433-.59-.434-.59C63.346 30.78 52.273 16 32 16S.655 30.78.193 31.41L-.24 32l.434.59C.654 33.22 11.727 48 32 48zm0-30c16.983 0 27.434 11.265 29.72 14C59.433 34.735 48.982 46 32 46S4.566 34.735 2.28 32C4.567 29.265 15.018 18 32 18zM32 40c4.41 0 8-3.59 8-8s-3.59-8-8-8-8 3.59-8 8 3.59 8 8 8zm0-14c3.31 0 6 2.69 6 6s-2.69 6-6 6-6-2.69-6-6 2.69-6 6-6z"></path></svg>
<svg xmlns="http://www.w3.org/2000/svg" width="64" height="64" viewBox="0 0 64 64" id="basic_link"><path d="M52.986 0h-.008c-2.4 0-4.683.758-6.6 2.197L33.276 15.302c-2.118 2.162-3.283 4.896-3.28 7.702a10.88 10.88 0 0 0 1.104 4.8l1.794-.884c-.05-.104-.1-.21-.146-.316l-.917.4.918-.402A8.927 8.927 0 0 1 31.994 23c0-2.28.96-4.518 2.703-6.296l12.94-12.95A8.915 8.915 0 0 1 52.977 2h.007c2.4 0 4.66.928 6.36 2.625a8.93 8.93 0 0 1 2.64 6.358 8.916 8.916 0 0 1-1.754 5.344L48.29 28.282l-.092.108C46.48 30.682 43.858 32 41 32h-.007a8.946 8.946 0 0 1-3.59-.748l-.8 1.836c1.39.603 2.866.912 4.39.912h.01c3.467 0 6.653-1.59 8.752-4.35l11.943-11.96.092-.11a10.908 10.908 0 0 0 2.196-6.603A10.91 10.91 0 0 0 60.76 3.21 10.925 10.925 0 0 0 52.985 0zm-21.73 37.402a8.918 8.918 0 0 1 .75 3.598 8.913 8.913 0 0 1-1.755 5.346L18.31 58.302l-.09.098a8.917 8.917 0 0 1-7.2 3.6h-.006a8.94 8.94 0 0 1-6.36-2.625 8.93 8.93 0 0 1-2.64-6.358c0-2.278.96-4.515 2.703-6.292l12.94-12.96A8.917 8.917 0 0 1 23 32h.007c1.248 0 2.456.254 3.59.75l.8-1.834a10.9 10.9 0 0 0-4.39-.916h-.01c-2.4 0-4.683.768-6.598 2.208L3.293 45.318C1.177 47.478.012 50.214.014 53.02a10.914 10.914 0 0 0 3.227 7.77A10.922 10.922 0 0 0 11.016 64h.008c3.468 0 6.654-1.58 8.752-4.34l11.943-11.956.092-.105a10.902 10.902 0 0 0 2.195-6.604c0-1.53-.31-3.01-.92-4.397l-1.83.8zM41.702 23.702L23.715 41.714 22.3 40.3l17.986-18.012z"></path></svg>
<svg xmlns="http://www.w3.org/2000/svg" width="64" height="64" viewBox="0 0 64 64" id="basic_magnifier"><path d="M21 42c5.43 0 10.37-2.09 14.102-5.484L39.586 41l-3 3L57 64.414 64.414 57 44 36.586l-3 3-4.484-4.484C39.91 31.37 42 26.432 42 21 42 9.42 32.58 0 21 0S0 9.42 0 21s9.42 21 21 21zm40.586 15L57 61.586 39.414 44 44 39.414 61.586 57zM21 2c10.477 0 19 8.523 19 19s-8.523 19-19 19S2 31.477 2 21 10.523 2 21 2z"></path></svg>
<svg xmlns="http://www.w3.org/2000/svg" width="64" height="64" viewBox="0 0 64 64" id="basic_paperplane"><path d="M.576 29.094l-.023 1.8 21.702 10.852 10.85 21.702 1.802-.023 29-62-.782-.548-.548-.782-62 29zM58.27 4.317L22.802 39.783 3.296 30.03 58.27 4.317zm-24.3 56.387l-9.753-19.507L59.683 5.73 33.97 60.705z"></path></svg>
<svg xmlns="http://www.w3.org/2000/svg" width="64" height="64" viewBox="0 0 64 64" id="basic_picture_multiple"><path d="M54 15H0v42h54V15zm-2 2v34.826L39.104 40.77l-9.9 5.942-14.155-16.175L2 43.587V17h50zM2 55v-8.586l12.95-12.95L28.8 49.286l10.1-6.06L52 54.46V55H2zM9 14h2V9h51v38h-7v2h9V7H9zM40 35c3.31 0 6-2.69 6-6s-2.69-6-6-6-6 2.69-6 6 2.69 6 6 6zm0-10c2.206 0 4 1.794 4 4s-1.794 4-4 4-4-1.794-4-4 1.794-4 4-4z"></path></svg>
<svg xmlns="http://www.w3.org/2000/svg" width="64" height="64" viewBox="0 0 64 64" id="basic_webpage_multiple"><path d="M56 14H0v44h56V14zm-2 2v6H2v-6h52zM2 56V24h52v32H2zM10 12h2V8h50v41h-4v2h6V6H10zM6 18h4v2H6zM14 18h4v2h-4zM22 18h4v2h-4z"></path></svg>
